<svg width="217" height="209" viewBox="0 0 217 209" fill="none" xmlns="http://www.w3.org/2000/svg">
<rect width="217" height="209" fill="white"/>
<circle cx="108.5" cy="104.5" r="96.5" fill="#282626"/>
<path d="M65.88 151.2C63 151.2 60.856 150.592 59.448 149.376C58.04 148.224 57.336 147.136 57.336 146.112C57.336 144.768 57.528 143.712 57.912 142.944C58.232 142.176 58.808 141.792 59.64 141.792C60.152 141.792 60.792 142.144 61.56 142.848C62.328 143.552 63.224 144.256 64.248 144.96C65.016 145.536 65.88 146.112 66.84 146.688C67.8 147.264 68.792 147.552 69.816 147.552C71.096 147.552 72.28 147.136 73.368 146.304C74.456 145.536 75.544 144.064 76.632 141.888C77.784 139.712 78.968 136.576 80.184 132.48L96.408 79.104C97.112 76.864 97.176 75.296 96.6 74.4C96.088 73.44 94.776 72.736 92.664 72.288C91.704 72.096 91.064 71.84 90.744 71.52C90.424 71.2 90.264 70.816 90.264 70.368C90.264 69.984 90.552 69.728 91.128 69.6C91.768 69.408 92.472 69.312 93.24 69.312C94.84 69.312 96.12 69.344 97.08 69.408C98.104 69.472 99.096 69.536 100.056 69.6C101.016 69.6 102.168 69.6 103.512 69.6C104.6 69.6 105.464 69.6 106.104 69.6C106.808 69.536 107.576 69.472 108.408 69.408C109.24 69.344 110.456 69.312 112.056 69.312C113.528 69.312 114.264 69.664 114.264 70.368C114.264 70.816 113.944 71.2 113.304 71.52C112.728 71.84 111.896 72.096 110.808 72.288C109.272 72.544 108.056 72.928 107.16 73.44C106.264 73.952 105.56 74.656 105.048 75.552C104.6 76.448 104.12 77.632 103.608 79.104L91.608 118.368C90.072 123.424 88.696 127.488 87.48 130.56C86.328 133.568 85.24 135.936 84.216 137.664C83.256 139.456 82.328 140.864 81.432 141.888C80.536 142.912 79.64 143.904 78.744 144.864C76.952 146.72 75.032 148.224 72.984 149.376C70.872 150.592 68.504 151.2 65.88 151.2ZM120.083 133.44C118.483 133.44 116.851 133.28 115.187 132.96C113.523 132.704 111.859 132.256 110.195 131.616C109.363 131.296 108.659 131.04 108.083 130.848C107.571 130.592 107.219 130.464 107.027 130.464C106.707 130.464 106.355 130.528 105.971 130.656C105.651 130.784 105.331 130.912 105.011 131.04C104.627 131.296 104.275 131.52 103.955 131.712C103.635 131.904 103.347 132 103.091 132C102.835 132 102.483 131.808 102.035 131.424C101.523 130.976 101.267 130.56 101.267 130.176C101.267 129.792 101.555 128.928 102.131 127.584C102.707 126.24 103.347 124.544 104.051 122.496C104.819 120.384 105.363 118.08 105.683 115.584C105.875 114.304 106.387 113.664 107.219 113.664C107.731 113.664 108.051 113.984 108.179 114.624C108.307 115.2 108.371 116.128 108.371 117.408C108.371 119.84 108.755 122.08 109.523 124.128C110.355 126.112 111.603 127.68 113.267 128.832C114.995 129.984 117.171 130.56 119.795 130.56C123.891 130.56 127.347 129.408 130.163 127.104C133.043 124.736 134.483 121.408 134.483 117.12C134.483 115.456 134.227 113.92 133.715 112.512C133.267 111.104 132.467 109.664 131.315 108.192C130.163 106.656 128.563 104.928 126.515 103.008C123.763 100.512 121.395 97.92 119.411 95.232C117.491 92.544 116.531 89.376 116.531 85.728C116.531 82.336 117.395 79.328 119.123 76.704C120.915 74.08 123.315 72.032 126.323 70.56C129.395 69.024 132.819 68.256 136.595 68.256C137.619 68.256 138.707 68.384 139.859 68.64C141.011 68.832 142.131 69.088 143.219 69.408C144.499 69.792 145.555 70.176 146.387 70.56C147.283 70.88 147.955 71.04 148.403 71.04C149.107 71.04 149.715 70.88 150.227 70.56C150.483 70.432 150.739 70.336 150.995 70.272C151.251 70.144 151.539 70.08 151.859 70.08C152.371 70.08 152.691 70.272 152.819 70.656C152.947 71.04 153.011 71.36 153.011 71.616C153.011 71.68 152.787 72.096 152.339 72.864C151.955 73.568 151.475 74.816 150.899 76.608C150.387 78.336 149.875 80.864 149.363 84.192C149.235 85.152 148.979 85.92 148.595 86.496C148.275 87.008 148.019 87.264 147.827 87.264C147.379 87.264 147.059 87.04 146.867 86.592C146.739 86.08 146.675 85.472 146.675 84.768C146.675 80.288 145.651 76.896 143.603 74.592C141.555 72.224 138.835 71.04 135.443 71.04C133.203 71.04 131.123 71.648 129.203 72.864C127.347 74.08 125.875 75.648 124.787 77.568C123.699 79.424 123.155 81.376 123.155 83.424C123.155 85.088 123.443 86.72 124.019 88.32C124.595 89.856 125.523 91.456 126.803 93.12C128.147 94.72 129.907 96.544 132.083 98.592C135.347 101.536 137.779 104.224 139.379 106.656C141.043 109.088 141.875 111.648 141.875 114.336C141.875 117.856 141.043 121.056 139.379 123.936C137.715 126.816 135.251 129.12 131.987 130.848C128.787 132.576 124.819 133.44 120.083 133.44Z" fill="white"/>
</svg>
